<?xml version="1.0" encoding="UTF-8"?>
<svg width="126px" height="134px" viewBox="0 0 126 134" version="1.1" xmlns="http://www.w3.org/2000/svg" xmlns:xlink="http://www.w3.org/1999/xlink">
    <!-- Generator: Sketch 48.2 (47327) - http://www.bohemiancoding.com/sketch -->
    <title>seniors-in-motion</title>
    <desc>Created with Sketch.</desc>
    <defs></defs>
    <g id="Page-1" stroke="none" stroke-width="1" fill="none" fill-rule="evenodd">
        <path d="M109.448545,126.082423 C103.494503,120.113464 101.33409,118.379078 97.2897475,116.321252 C94.5847357,114.944906 91.3379363,113.488071 90.0746556,113.083839 C86.3388368,111.888477 86.4554338,110.961998 90.2807566,111.447114 C95.0982223,112.058051 100.820511,114.079444 103.759599,116.208512 C109.610126,120.446618 106.244755,114.994863 97.4492144,105.985972 C92.4001581,100.814463 91.4494678,99.5302704 91.4494678,97.8815785 C91.4494678,95.1973628 93.1437249,94.7448468 96.717033,96.4746778 C101.460748,98.7710658 111.377645,111.136406 116.254037,120.835258 C118.241204,124.787658 120.024593,131.070044 119.527279,132.366017 C118.692883,134.540417 116.557635,133.209195 109.448661,126.082423 L109.448545,126.082423 Z M57.805864,118.225855 C51.901882,117.470267 47.2865724,115.814397 36.056703,110.422746 C23.6433521,104.462879 13.7730163,100.540127 6.4531238,98.6574371 C0.811514938,97.2064244 0.739273229,97.165255 3.78690772,97.1377303 C11.7618866,97.0656191 22.7792859,99.7651915 37.2853519,105.34551 C42.6156033,107.395987 48.8179763,109.462136 51.0683876,109.936962 C69.2138218,113.765451 77.9309422,104.712793 80.5628429,79.3072852 C81.6324626,68.9822193 80.4266897,48.7387612 78.635837,46.9565085 C76.652949,44.9830906 79.2007899,41.9972182 85.6173236,38.7747458 C96.5598742,33.2792173 113.985662,16.7845722 123.711453,2.71613694 C126.890784,-1.88280978 126.640901,-0.280104398 123.274152,5.52071819 C114.056959,21.4017824 100.485609,36.8934464 89.8679321,43.653842 C85.8104007,46.237306 85.7294665,46.4706067 87.1156009,51.5884708 C91.8938919,69.2310027 91.2841623,90.9110513 85.6539548,103.55753 C80.605157,114.898138 71.0656712,119.922823 57.805864,118.225855 Z M64.4025104,34.1918219 C64.4094812,31.1049076 65.0861031,26.8770198 68.0716427,23.910097 C71,21 79,15 85,26 C86.7799819,29.2633001 82,33 79.6392995,28.8709772 C77.4814546,25.0967623 73.9951992,24.4728237 70.4934572,26.8326453 C68.1769703,28.3937384 65.6542661,32.3775755 65.6387447,34.4992075 C65.6340975,35.2599921 65.3519924,35.8824543 65.013866,35.8824543 C64.6757395,35.8824543 64.4006283,35.1216697 64.4025104,34.1918219 Z" id="jump" fill="#FFFFFF" fill-rule="nonzero"></path>
        <g id="Cape" transform="translate(0.000000, 49.000000)" fill="#DFDFDF">
            <ellipse id="Oval" cx="11.0736953" cy="33.6590252" rx="10.3680176" ry="8.375"></ellipse>
            <circle id="Oval-2" cx="36.8089346" cy="39.8089346" r="5.80893465"></circle>
            <circle id="Oval-2-Copy-2" cx="54" cy="42" r="4"></circle>
            <circle id="Oval-2-Copy-3" cx="64.5" cy="44.5" r="2.5"></circle>
            <circle id="Oval-2-Copy-11" cx="64.5" cy="44.5" r="2.5"></circle>
            <circle id="Oval-2-Copy-12" cx="73.5" cy="45.5" r="1.5"></circle>
            <ellipse id="Oval-2-Copy" cx="29.8971374" cy="22.2818626" rx="7.52620168" ry="6.42191993"></ellipse>
            <ellipse id="Oval-2-Copy-4" cx="59.2124399" cy="17.3861923" rx="3.85341734" ry="3.54622086"></ellipse>
            <ellipse id="Oval-2-Copy-8" cx="59.2124399" cy="17.3861923" rx="3.85341734" ry="3.54622086"></ellipse>
            <ellipse id="Oval-2-Copy-8" cx="57.8534173" cy="8.54622086" rx="3" ry="2.7608384"></ellipse>
            <ellipse id="Oval-2-Copy-8" cx="68" cy="12.7608384" rx="1.91337356" ry="1.7608384"></ellipse>
            <ellipse id="Oval-2-Copy-8" cx="66.9133736" cy="5.7608384" rx="1.91337356" ry="1.7608384"></ellipse>
            <ellipse id="Oval-2-Copy-13" transform="translate(74.770969, 34.703703) rotate(20.000000) translate(-74.770969, -34.703703) " cx="74.7709687" cy="34.7037032" rx="1.41175279" ry="1.2992071"></ellipse>
            <ellipse id="Oval-2-Copy-14" transform="translate(74.770969, 25.021677) rotate(20.000000) translate(-74.770969, -25.021677) " cx="74.7709687" cy="25.0216768" rx="1.41175279" ry="1.2992071"></ellipse>
            <ellipse id="Oval-2-Copy-15" transform="translate(74.770969, 16.703703) rotate(20.000000) translate(-74.770969, -16.703703) " cx="74.7709687" cy="16.7037032" rx="1.41175279" ry="1.2992071"></ellipse>
            <ellipse id="Oval-2-Copy-16" transform="translate(74.770969, 9.703703) rotate(20.000000) translate(-74.770969, -9.703703) " cx="74.7709687" cy="9.70370322" rx="1.41175279" ry="1.2992071"></ellipse>
            <ellipse id="Oval-2-Copy-17" transform="translate(73.770969, 2.296297) rotate(20.000000) translate(-73.770969, -2.296297) " cx="73.7709687" cy="2.29629678" rx="1.08553355" ry="1"></ellipse>
            <ellipse id="Oval-2-Copy-9" cx="67.9133736" cy="21.7608384" rx="2.45668678" ry="2.2608384"></ellipse>
            <ellipse id="Oval-2-Copy-10" cx="67.4566868" cy="32.2608384" rx="2.45668678" ry="2.2608384"></ellipse>
            <ellipse id="Oval-2-Copy-7" cx="45.889819" cy="12.5" rx="4.88981897" ry="4.5"></ellipse>
            <ellipse id="Oval-2-Copy-5" cx="45.8534173" cy="25.5462209" rx="4.94004378" ry="4.54622086"></ellipse>
            <ellipse id="Oval-2-Copy-6" cx="58" cy="28.6811179" rx="4" ry="3.68111787"></ellipse>
        </g>
    </g>
</svg>